<svg version="1.2" xmlns="http://www.w3.org/2000/svg" viewBox="0 0 40 40" width="40" height="40">
	<title>PeekWebPics</title>
	<defs>
		<clipPath clipPathUnits="userSpaceOnUse" id="cp1">
			<path d="m20 36c-8.85 0-16-7.15-16-16 0-8.85 7.15-16 16-16 8.85 0 16 7.15 16 16 0 8.85-7.15 16-16 16zm-12-36h24c4.42 0 8 3.58 8 8v24c0 4.42-3.58 8-8 8h-24c-4.42 0-8-3.58-8-8v-24c0-4.42 3.58-8 8-8z"/>
		</clipPath>
		<linearGradient id="g1" x2="1" gradientUnits="userSpaceOnUse" gradientTransform="matrix(70.981,-40.981,40.981,70.981,-35.981,5)">
			<stop offset="0" stop-color="#296f7f"/>
			<stop offset="1" stop-color="#42bfea"/>
		</linearGradient>
		<linearGradient id="g2" x2="1" gradientUnits="userSpaceOnUse" gradientTransform="matrix(0,-28,32,0,-0.25,44)">
			<stop offset="0" stop-color="#191919"/>
			<stop offset="1" stop-color="#4d4d4d"/>
		</linearGradient>
		<linearGradient id="g3" x2="1" gradientUnits="userSpaceOnUse" gradientTransform="matrix(0,-20,32,0,21.75,44)">
			<stop offset="0" stop-color="#282828"/>
			<stop offset="1" stop-color="#4d4d4d"/>
		</linearGradient>
		<linearGradient id="g4" x2="1" gradientUnits="userSpaceOnUse" gradientTransform="matrix(6.83,-11.83,11.83,6.83,17.67,15.5)">
			<stop offset="0" stop-color="#ff5500"/>
			<stop offset="1" stop-color="#fbb03b"/>
		</linearGradient>
	</defs>
	<style>
		.s0 { fill: url(#g1) } 
		.s1 { fill: none;stroke: #ffffff;stroke-miterlimit:10;stroke-width: 2 } 
		.s2 { fill: url(#g2) } 
		.s3 { fill: url(#g3) } 
		.s4 { fill: url(#g4) } 
	</style>
	<g id="&lt;Слой&gt;" clip-path="url(#cp1)">
		<g id="&lt;Слой&gt;">
			<path id="&lt;Path&gt;" fill-rule="evenodd" class="s0" d="m50-10v60h-60v-60z"/>
		</g>
		<g id="&lt;Слой&gt;">
			<path id="&lt;Path&gt;" class="s1" d="m27 20c0 9.4-3.1 17-7 17-3.9 0-7-7.6-7-17 0-9.4 3.1-17 7-17 3.9 0 7 7.6 7 17z"/>
			<path id="&lt;Path&gt;" fill-rule="evenodd" class="s1" d="m3 20h34"/>
			<path id="&lt;Path&gt;" fill-rule="evenodd" class="s1" d="m6 30c8.2-5 19.8-5 28 0"/>
			<path id="&lt;Path&gt;" class="s1" d=""/>
			<path id="&lt;Path&gt;" class="s1" d=""/>
			<path id="&lt;Path&gt;" fill-rule="evenodd" class="s1" d="m6 10c8.2 5.2 19.8 5.2 28 0"/>
			<path id="&lt;Path&gt;" class="s1" d="m37 20c0 9.4-7.6 17-17 17-9.4 0-17-7.6-17-17 0-9.4 7.6-17 17-17 9.4 0 17 7.6 17 17z"/>
		</g>
		<g id="&lt;Слой&gt;">
			<path id="&lt;Path&gt;" class="s2" d="m28 44l-16-28-16 28z"/>
			<path id="&lt;Path&gt;" class="s3" d="m12 44l16-20 16 20z"/>
		</g>
		<g id="&lt;Слой&gt;">
			<path id="&lt;Path&gt;" class="s4" d="m22 13c0 2.8 2.2 5 5 5 2.8 0 5-2.2 5-5 0-2.8-2.2-5-5-5-2.8 0-5 2.2-5 5z"/>
		</g>
	</g>
</svg>